<?xml version="1.0" encoding="utf-8"?>
<!-- Generator: Adobe Illustrator 19.0.0, SVG Export Plug-In . SVG Version: 6.00 Build 0)  -->
<svg version="1.1" id="Layer_1" xmlns="http://www.w3.org/2000/svg" xmlns:xlink="http://www.w3.org/1999/xlink" x="0px" y="0px"
	 viewBox="0 0 340.2 340.2" style="enable-background:new 0 0 340.2 340.2;" xml:space="preserve">
<style type="text/css">
	.st0{fill:none;stroke:#000000;stroke-width:0.5;stroke-miterlimit:10;}
	.st1{font-family:'MongolianBaiti';}
	.st2{font-size:24px;}
	.st3{font-size:10px;}
	.st4{font-size:12px;}
	.st5{font-size:5px;}
</style>
<path id="XMLID_1_" class="st0" d="M499.8-88.4h-35.9c-4.2,0-7.6-3.4-7.6-7.6v-89.7c0-4.2,3.4-7.6,7.6-7.6h35.9
	c4.2,0,7.6,3.4,7.6,7.6v89.7C507.4-91.8,504-88.4,499.8-88.4z"/>
<line id="XMLID_2_" class="st0" x1="396.9" y1="-55.8" x2="680.3" y2="-55.8"/>
<line id="XMLID_3_" class="st0" x1="396.9" y1="-55.8" x2="396.9" y2="-339.2"/>
<circle id="XMLID_4_" cx="481.9" cy="-140.8" r="2.8"/>
<path id="XMLID_6_" class="st0" d="M561.3-236.7v35.9c0,4.2-3.4,7.6-7.6,7.6h-89.7c-4.2,0-7.6-3.4-7.6-7.6v-35.9
	c0-4.2,3.4-7.6,7.6-7.6h89.7C557.9-244.3,561.3-240.9,561.3-236.7z"/>
<circle id="XMLID_5_" cx="508.8" cy="-218.8" r="2.8"/>
<text id="XMLID_7_" transform="matrix(1 0 0 1 481.8897 -145.0569)"><tspan x="0" y="0" class="st1 st4">m</tspan><tspan x="9.3" y="0" class="st1 st5">rb,1</tspan></text>
<text id="XMLID_8_" transform="matrix(1 0 0 1 511.6537 -223.0097)"><tspan x="0" y="0" class="st1 st4">m</tspan><tspan x="9.3" y="0" class="st1 st5">rb,2</tspan></text>
<g id="XMLID_12_">
	<line id="XMLID_9_" class="st0" x1="510.2" y1="-140.8" x2="531.5" y2="-140.8"/>
	<line id="XMLID_10_" class="st0" x1="527.2" y1="-142.2" x2="531.5" y2="-140.8"/>
	<line id="XMLID_11_" class="st0" x1="527.2" y1="-139.4" x2="531.5" y2="-140.8"/>
</g>
<g id="XMLID_13_">
	<line id="XMLID_16_" class="st0" x1="564.1" y1="-218.8" x2="585.4" y2="-218.8"/>
	<line id="XMLID_15_" class="st0" x1="581.1" y1="-220.2" x2="585.4" y2="-218.8"/>
	<line id="XMLID_14_" class="st0" x1="581.1" y1="-217.3" x2="585.4" y2="-218.8"/>
</g>
<line id="XMLID_21_" class="st0" x1="510.2" y1="-140.8" x2="514.5" y2="-142.2"/>
<line id="XMLID_22_" class="st0" x1="510.2" y1="-140.8" x2="514.5" y2="-139.4"/>
<line id="XMLID_23_" class="st0" x1="564.1" y1="-218.8" x2="568.3" y2="-220.2"/>
<line id="XMLID_24_" class="st0" x1="564.1" y1="-218.8" x2="568.3" y2="-217.3"/>
<g id="XMLID_27_">
	<g id="XMLID_17_">
		<line id="XMLID_20_" class="st0" x1="508.8" y1="-247.1" x2="508.8" y2="-268.4"/>
		<line id="XMLID_19_" class="st0" x1="507.4" y1="-264.1" x2="508.8" y2="-268.4"/>
		<line id="XMLID_18_" class="st0" x1="510.2" y1="-264.1" x2="508.8" y2="-268.4"/>
	</g>
	<line id="XMLID_25_" class="st0" x1="508.8" y1="-247.1" x2="510.2" y2="-251.4"/>
	<line id="XMLID_26_" class="st0" x1="508.8" y1="-247.1" x2="507.4" y2="-251.4"/>
</g>
<g id="XMLID_28_">
	<g id="XMLID_31_">
		<line id="XMLID_34_" class="st0" x1="481.9" y1="-196.1" x2="481.9" y2="-217.3"/>
		<line id="XMLID_33_" class="st0" x1="480.5" y1="-213.1" x2="481.9" y2="-217.3"/>
		<line id="XMLID_32_" class="st0" x1="483.3" y1="-213.1" x2="481.9" y2="-217.3"/>
	</g>
	<line id="XMLID_30_" class="st0" x1="481.9" y1="-196.1" x2="483.3" y2="-200.3"/>
	<line id="XMLID_29_" class="st0" x1="481.9" y1="-196.1" x2="480.5" y2="-200.3"/>
</g>
<text id="XMLID_35_" transform="matrix(1 0 0 1 574.0158 -223.0098)"><tspan x="0" y="0" class="st1 st4">m</tspan><tspan x="9.3" y="0" class="st1 st5">a,x,2</tspan></text>
<text id="XMLID_36_" transform="matrix(1 0 0 1 511.6534 -264.1118)"><tspan x="0" y="0" class="st1 st4">m</tspan><tspan x="9.3" y="0" class="st1 st5">a,y,2</tspan></text>
<text id="XMLID_37_" transform="matrix(1 0 0 1 517.3229 -145.0567)"><tspan x="0" y="0" class="st1 st4">m</tspan><tspan x="9.3" y="0" class="st1 st5">a,y,1</tspan></text>
<text id="XMLID_38_" transform="matrix(1 0 0 1 470.5513 -186.1591)"><tspan x="0" y="0" class="st1 st4">m</tspan><tspan x="9.3" y="0" class="st1 st5">a,x,1</tspan></text>
<text id="XMLID_39_" transform="matrix(1 0 0 1 661.89 -45.8441)"><tspan x="0" y="0" class="st1 st4">x</tspan><tspan x="6" y="0" class="st1 st5">p</tspan></text>
<text id="XMLID_40_" transform="matrix(1 0 0 1 381.2598 -317.9705)"><tspan x="0" y="0" class="st1 st4">y</tspan><tspan x="6" y="0" class="st1 st5">p</tspan></text>
<line id="XMLID_79_" class="st0" x1="28.3" y1="-56.7" x2="311.8" y2="-56.7"/>
<line id="XMLID_78_" class="st0" x1="28.3" y1="-56.7" x2="28.3" y2="-340.2"/>
<path id="XMLID_76_" class="st0" d="M165.8-131.3v35.9c0,4.2-3.4,7.6-7.6,7.6H68.5c-4.2,0-7.6-3.4-7.6-7.6v-35.9
	c0-4.2,3.4-7.6,7.6-7.6h89.7C162.4-138.9,165.8-135.5,165.8-131.3z"/>
<circle id="XMLID_75_" cx="113.4" cy="-113.4" r="2.8"/>
<text id="XMLID_73_" transform="matrix(1 0 0 1 116.2206 -117.6438)"><tspan x="0" y="0" class="st1 st4">m</tspan><tspan x="9.3" y="0" class="st1 st5">rb,2</tspan></text>
<g id="XMLID_65_">
	<line id="XMLID_68_" class="st0" x1="168.7" y1="-113.4" x2="189.9" y2="-113.4"/>
	<line id="XMLID_67_" class="st0" x1="185.7" y1="-114.8" x2="189.9" y2="-113.4"/>
	<line id="XMLID_66_" class="st0" x1="185.7" y1="-112" x2="189.9" y2="-113.4"/>
</g>
<line id="XMLID_62_" class="st0" x1="168.7" y1="-113.4" x2="172.9" y2="-114.8"/>
<line id="XMLID_61_" class="st0" x1="168.7" y1="-113.4" x2="172.9" y2="-112"/>
<g id="XMLID_54_">
	<g id="XMLID_57_">
		<line id="XMLID_60_" class="st0" x1="113.4" y1="-141.7" x2="113.4" y2="-163"/>
		<line id="XMLID_59_" class="st0" x1="112" y1="-158.7" x2="113.4" y2="-163"/>
		<line id="XMLID_58_" class="st0" x1="114.8" y1="-158.7" x2="113.4" y2="-163"/>
	</g>
	<line id="XMLID_56_" class="st0" x1="113.4" y1="-141.7" x2="114.8" y2="-146"/>
	<line id="XMLID_55_" class="st0" x1="113.4" y1="-141.7" x2="112" y2="-146"/>
</g>
<text id="XMLID_46_" transform="matrix(1 0 0 1 178.5828 -117.6439)"><tspan x="0" y="0" class="st1 st4">m</tspan><tspan x="9.3" y="0" class="st1 st5">a,x,2</tspan></text>
<text id="XMLID_45_" transform="matrix(1 0 0 1 116.2203 -158.746)"><tspan x="0" y="0" class="st1 st4">m</tspan><tspan x="9.3" y="0" class="st1 st5">a,y,2</tspan></text>
<text id="XMLID_42_" transform="matrix(1 0 0 1 293.3861 -46.7778)"><tspan x="0" y="0" class="st1 st4">x</tspan><tspan x="6" y="0" class="st1 st5">g</tspan></text>
<text id="XMLID_41_" transform="matrix(1 0 0 1 12.7559 -318.9042)"><tspan x="0" y="0" class="st1 st4">y</tspan><tspan x="6" y="0" class="st1 st5">g</tspan></text>
<line id="XMLID_97_" class="st0" x1="28.3" y1="311.8" x2="311.8" y2="311.8"/>
<line id="XMLID_96_" class="st0" x1="28.3" y1="311.8" x2="28.3" y2="28.3"/>
<path id="XMLID_95_" class="st0" d="M275,134.2V206c0,8.3-6.8,15.1-15.1,15.1H80.3c-8.3,0-15.1-6.8-15.1-15.1v-71.8
	c0-8.3,6.8-15.1,15.1-15.1h179.5C268.1,119,275,125.9,275,134.2z"/>
<circle id="XMLID_94_" cx="170.1" cy="170.1" r="5.7"/>
<text id="XMLID_93_" transform="matrix(1 0 0 1 175.748 161.5688)"><tspan x="0" y="0" class="st1 st2">m</tspan><tspan x="18.7" y="0" class="st1 st3">rb,2</tspan></text>
<g id="XMLID_89_">
	<line id="XMLID_92_" class="st0" x1="280.6" y1="170.1" x2="323.1" y2="170.1"/>
	<line id="XMLID_91_" class="st0" x1="314.6" y1="167.2" x2="323.1" y2="170.1"/>
	<line id="XMLID_90_" class="st0" x1="314.6" y1="172.9" x2="323.1" y2="170.1"/>
</g>
<line id="XMLID_88_" class="st0" x1="280.6" y1="170.1" x2="289.1" y2="167.2"/>
<line id="XMLID_87_" class="st0" x1="280.6" y1="170.1" x2="289.1" y2="172.9"/>
<g id="XMLID_80_">
	<g id="XMLID_83_">
		<line id="XMLID_86_" class="st0" x1="170.1" y1="113.4" x2="170.1" y2="70.9"/>
		<line id="XMLID_85_" class="st0" x1="167.2" y1="79.4" x2="170.1" y2="70.9"/>
		<line id="XMLID_84_" class="st0" x1="172.9" y1="79.4" x2="170.1" y2="70.9"/>
	</g>
	<line id="XMLID_82_" class="st0" x1="170.1" y1="113.4" x2="172.9" y2="104.9"/>
	<line id="XMLID_81_" class="st0" x1="170.1" y1="113.4" x2="167.2" y2="104.9"/>
</g>
<text id="XMLID_77_" transform="matrix(1 0 0 1 293.3857 162.9858)"><tspan x="0" y="0" class="st1 st2">m</tspan><tspan x="18.7" y="0" class="st1 st3">a,x,2</tspan></text>
<text id="XMLID_74_" transform="matrix(1 0 0 1 175.748 79.3638)"><tspan x="0" y="0" class="st1 st2">m</tspan><tspan x="18.7" y="0" class="st1 st3">a,y,2</tspan></text>
<text id="XMLID_72_" transform="matrix(1 0 0 1 293.386 321.7267)"><tspan x="0" y="0" class="st1 st4">x</tspan><tspan x="6" y="0" class="st1 st5">g</tspan></text>
<text id="XMLID_71_" transform="matrix(1 0 0 1 12.7559 49.6003)"><tspan x="0" y="0" class="st1 st4">y</tspan><tspan x="6" y="0" class="st1 st5">g</tspan></text>
<line id="XMLID_127_" class="st0" x1="85" y1="208.3" x2="155.9" y2="208.3"/>
<line id="XMLID_126_" class="st0" x1="85" y1="208.3" x2="85" y2="137.5"/>
<line id="XMLID_124_" class="st0" x1="85" y1="137.5" x2="82.2" y2="146"/>
<line id="XMLID_125_" class="st0" x1="85" y1="137.5" x2="87.9" y2="146"/>
<line id="XMLID_128_" class="st0" x1="155.9" y1="208.3" x2="147.4" y2="211.2"/>
<line id="XMLID_129_" class="st0" x1="155.9" y1="208.3" x2="147.4" y2="205.5"/>
<text id="XMLID_130_" transform="matrix(1 0 0 1 137.4804 206.9232)"><tspan x="0" y="0" class="st1 st4">x</tspan><tspan x="6" y="0" class="st1 st5">b</tspan></text>
<text id="XMLID_131_" transform="matrix(1 0 0 1 90.7086 141.7258)"><tspan x="0" y="0" class="st1 st4">y</tspan><tspan x="6" y="0" class="st1 st5">b</tspan></text>
<line id="XMLID_174_" class="st0" x1="396.9" y1="311.8" x2="680.3" y2="311.8"/>
<line id="XMLID_173_" class="st0" x1="396.9" y1="311.8" x2="396.9" y2="28.3"/>
<path id="XMLID_172_" class="st0" d="M595.1,102.5l35.9,62.2c4.2,7.2,1.7,16.5-5.5,20.7L470,275.1c-7.2,4.2-16.5,1.7-20.7-5.5
	l-35.9-62.2c-4.2-7.2-1.7-16.5,5.5-20.7L574.4,97C581.7,92.8,591,95.3,595.1,102.5z"/>
<circle id="XMLID_171_" cx="522.2" cy="186" r="5.7"/>
<text id="XMLID_170_" transform="matrix(0.866 -0.5 0.5 0.866 522.8994 175.8313)"><tspan x="0" y="0" class="st1 st2">m</tspan><tspan x="18.7" y="0" class="st1 st3">rb,2</tspan></text>
<g id="XMLID_166_">
	<line id="XMLID_169_" class="st0" x1="618" y1="130.8" x2="654.8" y2="109.5"/>
	<line id="XMLID_168_" class="st0" x1="646" y1="111.3" x2="654.8" y2="109.5"/>
	<line id="XMLID_167_" class="st0" x1="648.9" y1="116.2" x2="654.8" y2="109.5"/>
</g>
<line id="XMLID_165_" class="st0" x1="618" y1="130.8" x2="623.9" y2="124"/>
<line id="XMLID_164_" class="st0" x1="618" y1="130.8" x2="626.8" y2="129"/>
<g id="XMLID_157_">
	<g id="XMLID_160_">
		<line id="XMLID_163_" class="st0" x1="493.9" y1="136.9" x2="472.6" y2="100.1"/>
		<line id="XMLID_162_" class="st0" x1="474.4" y1="108.9" x2="472.6" y2="100.1"/>
		<line id="XMLID_161_" class="st0" x1="479.3" y1="106.1" x2="472.6" y2="100.1"/>
	</g>
	<line id="XMLID_159_" class="st0" x1="493.9" y1="136.9" x2="492.1" y2="128.2"/>
	<line id="XMLID_158_" class="st0" x1="493.9" y1="136.9" x2="487.2" y2="131"/>
</g>
<text id="XMLID_156_" transform="matrix(0.866 -0.5 0.5 0.866 625.4851 118.2396)"><tspan x="0" y="0" class="st1 st2">m</tspan><tspan x="18.7" y="0" class="st1 st3">a,x,2</tspan></text>
<text id="XMLID_155_" transform="matrix(0.866 -0.5 0.5 0.866 481.7968 104.6397)"><tspan x="0" y="0" class="st1 st2">m</tspan><tspan x="18.7" y="0" class="st1 st3">a,y,2</tspan></text>
<text id="XMLID_154_" transform="matrix(1 0 0 1 661.8899 321.7267)"><tspan x="0" y="0" class="st1 st4">x</tspan><tspan x="6" y="0" class="st1 st5">g</tspan></text>
<text id="XMLID_153_" transform="matrix(1 0 0 1 381.2598 49.6003)"><tspan x="0" y="0" class="st1 st4">y</tspan><tspan x="6" y="0" class="st1 st5">g</tspan></text>
<line id="XMLID_152_" class="st0" x1="467.7" y1="261.7" x2="529.1" y2="226.3"/>
<line id="XMLID_151_" class="st0" x1="467.7" y1="261.7" x2="432.3" y2="200.3"/>
<line id="XMLID_150_" class="st0" x1="432.3" y1="200.3" x2="434.1" y2="209.1"/>
<line id="XMLID_149_" class="st0" x1="432.3" y1="200.3" x2="439" y2="206.3"/>
<line id="XMLID_148_" class="st0" x1="529.1" y1="226.3" x2="523.2" y2="233"/>
<line id="XMLID_147_" class="st0" x1="529.1" y1="226.3" x2="520.3" y2="228.1"/>
<text id="XMLID_146_" transform="matrix(0.866 -0.5 0.5 0.866 512.4359 234.2433)"><tspan x="0" y="0" class="st1 st4">x</tspan><tspan x="6" y="0" class="st1 st5">b</tspan></text>
<text id="XMLID_145_" transform="matrix(0.866 -0.5 0.5 0.866 439.3316 201.1666)"><tspan x="0" y="0" class="st1 st4">y</tspan><tspan x="6" y="0" class="st1 st5">b</tspan></text>
<line id="XMLID_201_" class="st0" x1="464.3" y1="278.4" x2="461.8" y2="279.8"/>
<line id="XMLID_202_" class="st0" x1="456.9" y1="282.7" x2="459.4" y2="281.2"/>
<line id="XMLID_203_" class="st0" x1="455.5" y1="280.2" x2="456.9" y2="282.7"/>
<line id="XMLID_204_" class="st0" x1="454.1" y1="277.7" x2="452.7" y2="275.3"/>
<line id="XMLID_205_" class="st0" x1="457.8" y1="283.5" x2="513.1" y2="283.5"/>
<path id="XMLID_208_" class="st0" d="M495.4,263.6c2.7,5.1,4.4,10.9,4.8,17"/>
<text id="XMLID_233_" transform="matrix(1 0 0 1 513.071 274.955)"><tspan x="0" y="0" style="font-family:'PalatinoLinotype-Roman'; font-size:20px;">Ψ</tspan><tspan x="17.4" y="0" class="st3" style="font-family:'PalatinoLinotype-Roman';">b</tspan></text>
<line id="XMLID_234_" class="st0" x1="495.4" y1="263.7" x2="495.8" y2="266.6"/>
<line id="XMLID_235_" class="st0" x1="495.4" y1="263.6" x2="497.5" y2="265.7"/>
</svg>
