<?xml version="1.0" encoding="utf-8"?>
<!-- Generator: Adobe Illustrator 19.0.0, SVG Export Plug-In . SVG Version: 6.00 Build 0)  -->
<svg version="1.1" id="Layer_1" xmlns="http://www.w3.org/2000/svg" xmlns:xlink="http://www.w3.org/1999/xlink" x="0px" y="0px"
	 viewBox="0 0 56.7 56.7" style="enable-background:new 0 0 56.7 56.7;" xml:space="preserve">
<style type="text/css">
	.st0{fill:#FFFFFF;stroke:#000000;stroke-miterlimit:10;}
	.st1{fill:#00AEEF;stroke:#FFFFFF;stroke-miterlimit:10;}
	.st2{fill:#39B54A;stroke:#FFFFFF;stroke-miterlimit:10;}
	.st3{fill:#FFFFFF;stroke:#39B54A;stroke-miterlimit:10;}
	.st4{font-family:'MyriadPro-Regular';}
	.st5{font-size:19.8425px;}
</style>
<path id="XMLID_6_" class="st0" d="M-68-5.7"/>
<path id="XMLID_3_" class="st0" d="M-124.7-62.4"/>
<path id="XMLID_5_" class="st0" d="M-68-62.4"/>
<path id="XMLID_1_" class="st0" d="M-124.7-5.7"/>
<rect id="XMLID_32_" x="-56.7" y="-56.7" class="st1" width="14.2" height="48.2"/>
<rect id="XMLID_46_" x="-25.5" y="-56.7" class="st1" width="14.2" height="48.2"/>
<rect id="XMLID_152_" x="39.7" y="-51" class="st2" width="14.2" height="36.9"/>
<polygon id="XMLID_217_" class="st2" points="5.7,-56.7 45.4,-34 5.7,-11.3 "/>
<rect id="XMLID_258_" x="-121.9" y="11.3" class="st2" width="14.2" height="36.9"/>
<polygon id="XMLID_257_" class="st2" points="-73.7,5.7 -113.4,28.3 -73.7,51 "/>
<polygon id="XMLID_7_" class="st2" points="-113.4,-56.7 -73.7,-34 -113.4,-11.3 "/>
<polygon id="XMLID_363_" class="st3" points="-53.9,5.7 -14.2,28.3 -53.9,51 "/>
<text id="XMLID_390_" transform="matrix(1 0 0 1 -51.019 34.0175)" class="st4 st5">+1</text>
<polygon id="XMLID_457_" class="st3" points="48.2,5.7 8.5,28.3 48.2,51 "/>
<text id="XMLID_456_" transform="matrix(1 0 0 1 28.3509 34.0175)" class="st4 st5">-1</text>
</svg>
