<?xml version="1.0" encoding="utf-8"?>
<!-- Generator: Adobe Illustrator 19.0.0, SVG Export Plug-In . SVG Version: 6.00 Build 0)  -->
<svg version="1.1" id="Layer_1" xmlns="http://www.w3.org/2000/svg" xmlns:xlink="http://www.w3.org/1999/xlink" x="0px" y="0px"
	 viewBox="0 0 340.2 340.2" style="enable-background:new 0 0 340.2 340.2;" xml:space="preserve">
<style type="text/css">
	.st0{fill:none;stroke:#000000;stroke-width:0.5;stroke-miterlimit:10;}
	.st1{font-family:'MongolianBaiti';}
	.st2{font-size:24px;}
	.st3{font-size:10px;}
	.st4{font-size:12px;}
	.st5{font-size:5px;}
	.st6{font-family:'PalatinoLinotype-Roman';}
	.st7{font-size:20px;}
</style>
<line id="XMLID_174_" class="st0" x1="28.3" y1="311.8" x2="311.8" y2="311.8"/>
<line id="XMLID_173_" class="st0" x1="28.3" y1="311.8" x2="28.3" y2="28.3"/>
<path id="XMLID_172_" class="st0" d="M226.6,102.5l35.9,62.2c4.2,7.2,1.7,16.5-5.5,20.7l-155.4,89.7c-7.2,4.2-16.5,1.7-20.7-5.5
	L45,207.4c-4.2-7.2-1.7-16.5,5.5-20.7L205.9,97C213.2,92.8,222.5,95.3,226.6,102.5z"/>
<circle id="XMLID_171_" cx="153.7" cy="186" r="5.7"/>
<text id="XMLID_170_" transform="matrix(0.866 -0.5 0.5 0.866 154.4311 175.8724)"><tspan x="0" y="0" class="st1 st2">m</tspan><tspan x="18.7" y="0" class="st1 st3">rb,2</tspan></text>
<g id="XMLID_166_">
	<line id="XMLID_169_" class="st0" x1="249.5" y1="130.8" x2="286.3" y2="109.5"/>
	<line id="XMLID_168_" class="st0" x1="277.5" y1="111.3" x2="286.3" y2="109.5"/>
	<line id="XMLID_167_" class="st0" x1="280.4" y1="116.2" x2="286.3" y2="109.5"/>
</g>
<line id="XMLID_165_" class="st0" x1="249.5" y1="130.8" x2="255.4" y2="124.1"/>
<line id="XMLID_164_" class="st0" x1="249.5" y1="130.8" x2="258.3" y2="129"/>
<g id="XMLID_157_">
	<g id="XMLID_160_">
		<line id="XMLID_163_" class="st0" x1="125.4" y1="136.9" x2="104.1" y2="100.1"/>
		<line id="XMLID_162_" class="st0" x1="105.9" y1="108.9" x2="104.1" y2="100.1"/>
		<line id="XMLID_161_" class="st0" x1="110.8" y1="106.1" x2="104.1" y2="100.1"/>
	</g>
	<line id="XMLID_159_" class="st0" x1="125.4" y1="136.9" x2="123.6" y2="128.2"/>
	<line id="XMLID_158_" class="st0" x1="125.4" y1="136.9" x2="118.7" y2="131"/>
</g>
<text id="XMLID_156_" transform="matrix(0.866 -0.5 0.5 0.866 257.0174 118.2806)"><tspan x="0" y="0" class="st1 st2">m</tspan><tspan x="18.7" y="0" class="st1 st3">a,x,2</tspan></text>
<text id="XMLID_155_" transform="matrix(0.866 -0.5 0.5 0.866 113.3285 104.6803)"><tspan x="0" y="0" class="st1 st2">m</tspan><tspan x="18.7" y="0" class="st1 st3">a,y,2</tspan></text>
<text id="XMLID_154_" transform="matrix(1 0 0 1 293.3859 321.7327)"><tspan x="0" y="0" class="st1 st4">x</tspan><tspan x="6" y="0" class="st1 st5">g</tspan></text>
<text id="XMLID_153_" transform="matrix(1 0 0 1 12.7559 49.6063)"><tspan x="0" y="0" class="st1 st4">y</tspan><tspan x="6" y="0" class="st1 st5">g</tspan></text>
<line id="XMLID_152_" class="st0" x1="99.2" y1="261.7" x2="160.6" y2="226.3"/>
<line id="XMLID_151_" class="st0" x1="99.2" y1="261.7" x2="63.8" y2="200.3"/>
<line id="XMLID_150_" class="st0" x1="63.8" y1="200.3" x2="65.6" y2="209.1"/>
<line id="XMLID_149_" class="st0" x1="63.8" y1="200.3" x2="70.5" y2="206.3"/>
<line id="XMLID_148_" class="st0" x1="160.6" y1="226.3" x2="154.6" y2="233"/>
<line id="XMLID_147_" class="st0" x1="160.6" y1="226.3" x2="151.8" y2="228.1"/>
<text id="XMLID_146_" transform="matrix(0.866 -0.5 0.5 0.866 143.9692 234.2823)"><tspan x="0" y="0" class="st1 st4">x</tspan><tspan x="6" y="0" class="st1 st5">b</tspan></text>
<text id="XMLID_145_" transform="matrix(0.866 -0.5 0.5 0.866 70.8649 201.2056)"><tspan x="0" y="0" class="st1 st4">y</tspan><tspan x="6" y="0" class="st1 st5">b</tspan></text>
<line id="XMLID_201_" class="st0" x1="95.8" y1="278.4" x2="93.3" y2="279.8"/>
<line id="XMLID_202_" class="st0" x1="88.4" y1="282.7" x2="90.9" y2="281.2"/>
<line id="XMLID_203_" class="st0" x1="87" y1="280.2" x2="88.4" y2="282.7"/>
<line id="XMLID_204_" class="st0" x1="85.6" y1="277.8" x2="84.2" y2="275.3"/>
<line id="XMLID_205_" class="st0" x1="89.3" y1="283.5" x2="144.6" y2="283.5"/>
<path id="XMLID_208_" class="st0" d="M126.9,263.6c2.7,5.1,4.4,10.9,4.8,17"/>
<text id="XMLID_233_" transform="matrix(1 0 0 1 144.5671 274.961)"><tspan x="0" y="0" class="st6 st7">Ψ</tspan><tspan x="17.4" y="0" class="st6 st3">b</tspan></text>
<line id="XMLID_234_" class="st0" x1="126.9" y1="263.7" x2="127.3" y2="266.6"/>
<line id="XMLID_235_" class="st0" x1="126.9" y1="263.6" x2="129" y2="265.7"/>
</svg>
