<?xml version="1.0" encoding="utf-8"?>
<!-- Generator: Adobe Illustrator 19.0.0, SVG Export Plug-In . SVG Version: 6.00 Build 0)  -->
<svg version="1.1" id="Layer_1" xmlns="http://www.w3.org/2000/svg" xmlns:xlink="http://www.w3.org/1999/xlink" x="0px" y="0px"
	 viewBox="0 0 340.2 340.2" style="enable-background:new 0 0 340.2 340.2;" xml:space="preserve">
<style type="text/css">
	.st0{fill:none;stroke:#000000;stroke-width:0.5;stroke-miterlimit:10;}
	.st1{font-family:'MongolianBaiti';}
	.st2{font-size:12px;}
	.st3{font-size:5px;}
</style>
<path id="XMLID_1_" class="st0" d="M131.3,279.2H95.4c-4.2,0-7.6-3.4-7.6-7.6v-89.7c0-4.2,3.4-7.6,7.6-7.6h35.9
	c4.2,0,7.6,3.4,7.6,7.6v89.7C138.9,275.8,135.5,279.2,131.3,279.2z"/>
<line id="XMLID_2_" class="st0" x1="28.3" y1="311.8" x2="311.8" y2="311.8"/>
<line id="XMLID_3_" class="st0" x1="28.3" y1="311.8" x2="28.3" y2="28.3"/>
<circle id="XMLID_4_" cx="113.4" cy="226.8" r="2.8"/>
<path id="XMLID_6_" class="st0" d="M192.8,130.9v35.9c0,4.2-3.4,7.6-7.6,7.6H95.4c-4.2,0-7.6-3.4-7.6-7.6v-35.9
	c0-4.2,3.4-7.6,7.6-7.6h89.7C189.3,123.3,192.8,126.7,192.8,130.9z"/>
<circle id="XMLID_5_" cx="140.3" cy="148.8" r="2.8"/>
<text id="XMLID_7_" transform="matrix(1 0 0 1 113.3858 222.5192)"><tspan x="0" y="0" class="st1 st2">m</tspan><tspan x="9.3" y="0" class="st1 st3">rb,1</tspan></text>
<text id="XMLID_8_" transform="matrix(1 0 0 1 143.1498 144.5665)"><tspan x="0" y="0" class="st1 st2">m</tspan><tspan x="9.3" y="0" class="st1 st3">rb,2</tspan></text>
<g id="XMLID_12_">
	<line id="XMLID_9_" class="st0" x1="141.7" y1="226.8" x2="163" y2="226.8"/>
	<line id="XMLID_10_" class="st0" x1="158.7" y1="225.4" x2="163" y2="226.8"/>
	<line id="XMLID_11_" class="st0" x1="158.7" y1="228.2" x2="163" y2="226.8"/>
</g>
<g id="XMLID_13_">
	<line id="XMLID_16_" class="st0" x1="195.6" y1="148.8" x2="216.9" y2="148.8"/>
	<line id="XMLID_15_" class="st0" x1="212.6" y1="147.4" x2="216.9" y2="148.8"/>
	<line id="XMLID_14_" class="st0" x1="212.6" y1="150.2" x2="216.9" y2="148.8"/>
</g>
<line id="XMLID_21_" class="st0" x1="141.7" y1="226.8" x2="146" y2="225.4"/>
<line id="XMLID_22_" class="st0" x1="141.7" y1="226.8" x2="146" y2="228.2"/>
<line id="XMLID_23_" class="st0" x1="195.6" y1="148.8" x2="199.8" y2="147.4"/>
<line id="XMLID_24_" class="st0" x1="195.6" y1="148.8" x2="199.8" y2="150.2"/>
<g id="XMLID_27_">
	<g id="XMLID_17_">
		<line id="XMLID_20_" class="st0" x1="140.3" y1="120.5" x2="140.3" y2="99.2"/>
		<line id="XMLID_19_" class="st0" x1="138.9" y1="103.5" x2="140.3" y2="99.2"/>
		<line id="XMLID_18_" class="st0" x1="141.7" y1="103.5" x2="140.3" y2="99.2"/>
	</g>
	<line id="XMLID_25_" class="st0" x1="140.3" y1="120.5" x2="141.7" y2="116.2"/>
	<line id="XMLID_26_" class="st0" x1="140.3" y1="120.5" x2="138.9" y2="116.2"/>
</g>
<g id="XMLID_28_">
	<g id="XMLID_31_">
		<line id="XMLID_34_" class="st0" x1="113.4" y1="171.5" x2="113.4" y2="150.2"/>
		<line id="XMLID_33_" class="st0" x1="112" y1="154.5" x2="113.4" y2="150.2"/>
		<line id="XMLID_32_" class="st0" x1="114.8" y1="154.5" x2="113.4" y2="150.2"/>
	</g>
	<line id="XMLID_30_" class="st0" x1="113.4" y1="171.5" x2="114.8" y2="167.2"/>
	<line id="XMLID_29_" class="st0" x1="113.4" y1="171.5" x2="112" y2="167.2"/>
</g>
<text id="XMLID_35_" transform="matrix(1 0 0 1 205.5119 144.5664)"><tspan x="0" y="0" class="st1 st2">m</tspan><tspan x="9.3" y="0" class="st1 st3">a,x,2</tspan></text>
<text id="XMLID_36_" transform="matrix(1 0 0 1 143.1494 103.4643)"><tspan x="0" y="0" class="st1 st2">m</tspan><tspan x="9.3" y="0" class="st1 st3">a,y,2</tspan></text>
<text id="XMLID_37_" transform="matrix(1 0 0 1 148.819 222.5194)"><tspan x="0" y="0" class="st1 st2">m</tspan><tspan x="9.3" y="0" class="st1 st3">a,y,1</tspan></text>
<text id="XMLID_38_" transform="matrix(1 0 0 1 102.0474 181.417)"><tspan x="0" y="0" class="st1 st2">m</tspan><tspan x="9.3" y="0" class="st1 st3">a,x,1</tspan></text>
<text id="XMLID_39_" transform="matrix(1 0 0 1 293.3861 321.732)"><tspan x="0" y="0" class="st1 st2">x</tspan><tspan x="6" y="0" class="st1 st3">p</tspan></text>
<text id="XMLID_40_" transform="matrix(1 0 0 1 12.7559 49.6057)"><tspan x="0" y="0" class="st1 st2">y</tspan><tspan x="6" y="0" class="st1 st3">p</tspan></text>
</svg>
